<svg xmlns="http://www.w3.org/2000/svg" width="25.15" height="29.822" viewBox="0 0 25.15 29.822">
  <g id="Group_4254" data-name="Group 4254" transform="translate(0 -0.002)">
    <g id="Group_4253" data-name="Group 4253" transform="translate(0 0)">
      <g id="Group_4244" data-name="Group 4244">
        <path id="Path_17340" data-name="Path 17340" d="M218.1,259.2a37.3,37.3,0,0,1,12.4,2.209c0,10.367.08,21.346-12.4,27.241-12.483-5.9-12.4-16.874-12.4-27.241A36.913,36.913,0,0,1,218.1,259.2Z" transform="translate(-205.513 -259.014)" fill="#d2ab67" fill-rule="evenodd"/>
        <path id="Path_17341" data-name="Path 17341" d="M216.809,287.6c-12.416-5.855-12.509-16.768-12.509-26.988h0V260.2h0v-.12l.12-.04a37.292,37.292,0,0,1,12.456-2.222h0v.346a36.655,36.655,0,0,0-12.23,2.169h0v.28h0c0,10.234.08,20.853,12.23,26.629h0c12.15-5.789,12.217-16.4,12.217-26.642h0v-.28h0a36.522,36.522,0,0,0-12.217-2.169h0V257.8a37.292,37.292,0,0,1,12.456,2.222h0l.12.04v.519h0c0,10.234-.08,21.133-12.5,27h0l-.08.04-.067-.027Z" transform="translate(-204.3 -257.8)" fill="#034ea2"/>
      </g>
      <g id="Group_4245" data-name="Group 4245" transform="translate(1.397 1.624)">
        <path id="Path_17342" data-name="Path 17342" d="M225.992,270a33.51,33.51,0,0,1,11.192,2c0,9.355.08,19.27-11.192,24.579C214.72,291.253,214.8,281.352,214.8,272a33.393,33.393,0,0,1,11.192-2" transform="translate(-214.8 -270)" fill="#034ea2" fill-rule="evenodd"/>
      </g>
      <g id="Group_4246" data-name="Group 4246" transform="translate(5.463 7.502)">
        <path id="Path_17343" data-name="Path 17343" d="M252.729,314.509a1.055,1.055,0,0,1,.266.639c-.146.08-.333.093-.426.213.652-.093.785.732,1.517.413.053.12.146.226.293.173l.067-.213c.293-.093.213.413.532.319.146.146.053.386.146.559a1.32,1.32,0,0,0,.173.532c.067-.093.12-.24.306-.2a.839.839,0,0,1,.266.466c-.053.306-.12.6.186.772v.093c.213.093.665-.093.665.293-.027.146.146.027.186.093a1.859,1.859,0,0,1,.479-.027c.12.293-.173.506-.24.772.12.146.067.386.053.559l-.067.04c.186.053.452-.027.652.093l.333.146a.9.9,0,0,1,.559-.093c.173.12-.053.346.093.439.173,0,.333.027.359.2l.027.053c.146-.24.506-.08.665-.266.266,0,.319.319.426.492.053.439-.426.625-.293,1.065a3.636,3.636,0,0,1-.452.586c.053.027.027.093.027.146-.173.093-.027.386-.24.413-.027.2-.359.12-.24.319.213.293-.12.479-.12.745-.12.146-.386-.146-.386.146-.173.053-.319-.146-.439.027-.04.2.12.266.093.453.266-.027.333.24.426.412l.266.293c-.266.213-.6-.027-.918.093-.067-.04,0-.146-.067-.2a.7.7,0,0,0-.386-.12c.027.12-.186.173-.093.319,0,.053.053.173-.04.173-.213.08-.186-.186-.386-.093-.24.093-.053.492-.386.439.053.346-.532.559-.146.852.067.08.027.173.04.266a1,1,0,0,1-.932.053c-.213-.053-.067-.346-.16-.492s-.319-.24-.319-.439a.782.782,0,0,1-.386-.266,2.154,2.154,0,0,1-1.344.772c-.24.12-.359.639-.745.413-.146.266-.572,0-.6.359-.173.08-.093.319-.186.439a.651.651,0,0,0,.213.679c.093.226-.2.226-.08.413a.172.172,0,0,1-.053.2c-.067.053-.093.093-.067.173-.067,0-.093.04-.146.093-.08.146-.293.213-.439.319-.146.053-.24-.08-.333-.173a.288.288,0,0,1-.293.24c-.213,0-.173-.2-.333-.293.067-.253-.146-.373-.08-.586.173-.146.452-.24.386-.532-.186-.253-.12-.612-.306-.878a.554.554,0,0,1-.24-.559c.173-.213,0-.466-.093-.679a2.1,2.1,0,0,1-.146-.586c-.293-.173-.319-.652-.719-.705-.293,0-.333-.386-.625-.359-.027-.053-.093-.093-.146-.146-.213.146-.479-.053-.745.027-.173-.319.146-.732-.306-.918v-.2c.04.027.067-.027.093-.053.027-.213-.333-.24-.186-.492-.067-.067-.173-.093-.12-.24-.2-.439-.8-.386-.918-.825a1.2,1.2,0,0,0,.146-.293.832.832,0,0,1-.093-.532c.093-.027.146-.146.186-.239-.12-.093-.266-.226-.386-.173a2.457,2.457,0,0,1-.625-.359c-.053-.04-.027-.146-.027-.213.293-.093-.053-.532.306-.492.093-.12.293-.173.426-.266a.9.9,0,0,1,.413.067c.12.173.333.093.452.24a.618.618,0,0,1,.413-.027.726.726,0,0,1,.266-.559c.027-.093.16-.173.279-.213a.758.758,0,0,0,.652-.12c.093.067.186-.066.319-.066a.415.415,0,0,1,.359.093c.027-.293.479-.04.572-.386.093-.226-.293-.319-.266-.506-.08-.213.093-.333.16-.479a.546.546,0,0,1,.319-.08c.319-.12.067-.772.559-.532,0,.067-.027.146.027.173.173,0,.2-.213.319-.293.04-.2-.067-.439.093-.586a.35.35,0,0,0,.186-.12.437.437,0,0,0-.186-.346c-.053.08-.146.027-.213.053a2.117,2.117,0,0,0-.12-.439.2.2,0,0,1-.093-.213c.12-.12,0-.439.293-.373.093-.093.293-.027.386-.186.293-.173.652-.173.865-.492.093.027.2-.08.293,0,.027.213.266.133.293.306" transform="translate(-245.35 -314.172)" fill="#d2ab67" fill-rule="evenodd"/>
      </g>
      <g id="Group_4247" data-name="Group 4247" transform="translate(5.416 3.513)">
        <path id="Path_17344" data-name="Path 17344" d="M248.154,285.411l-.985.732.319,1.144-.932-.692-.945.692.359-1.144-.971-.732h1.211l.386-1.211.346,1.211Z" transform="translate(-245 -284.2)" fill="#fff" fill-rule="evenodd"/>
      </g>
      <g id="Group_4248" data-name="Group 4248" transform="translate(8.916 2.728)">
        <path id="Path_17345" data-name="Path 17345" d="M274.454,279.511l-.985.732.319,1.158-.932-.705-.945.692.359-1.144-.971-.732h1.211l.386-1.211.359,1.211Z" transform="translate(-271.3 -278.3)" fill="#fff" fill-rule="evenodd"/>
      </g>
      <g id="Group_4249" data-name="Group 4249" transform="translate(2.129 4.644)">
        <path id="Path_17346" data-name="Path 17346" d="M223.454,293.9l-1,.745.333,1.144-.932-.692-.958.692.373-1.144-.971-.745h1.2l.386-1.2.359,1.2Z" transform="translate(-220.3 -292.7)" fill="#fff" fill-rule="evenodd"/>
      </g>
      <g id="Group_4250" data-name="Group 4250" transform="translate(16.329 3.247)">
        <path id="Path_17347" data-name="Path 17347" d="M327,283.411l.985.732-.333,1.158.932-.705.958.692-.373-1.144.985-.732h-1.211l-.386-1.211-.346,1.211Z" transform="translate(-327 -282.2)" fill="#fff" fill-rule="evenodd"/>
      </g>
      <g id="Group_4251" data-name="Group 4251" transform="translate(12.762 2.728)">
        <path id="Path_17348" data-name="Path 17348" d="M300.2,279.511l1,.732-.333,1.158.932-.705.958.692-.359-1.144.971-.732h-1.211l-.386-1.211-.359,1.211Z" transform="translate(-300.2 -278.3)" fill="#fff" fill-rule="evenodd"/>
      </g>
      <g id="Group_4252" data-name="Group 4252" transform="translate(19.962 4.298)">
        <path id="Path_17349" data-name="Path 17349" d="M354.3,291.311l1,.745-.333,1.144.932-.705.958.705-.359-1.144.971-.745h-1.211l-.386-1.211-.359,1.211Z" transform="translate(-354.3 -290.1)" fill="#fff" fill-rule="evenodd"/>
      </g>
    </g>
  </g>
</svg>
